<?xml version="1.0" encoding="utf-8"?>
<!-- Generator: Adobe Illustrator 22.1.0, SVG Export Plug-In . SVG Version: 6.00 Build 0)  -->
<svg version="1.1" id="Layer_1" xmlns:serif="http://www.serif.com/"
	 xmlns="http://www.w3.org/2000/svg" xmlns:xlink="http://www.w3.org/1999/xlink" x="0px" y="0px" viewBox="0 0 60 60"
	 style="enable-background:new 0 0 60 60;" xml:space="preserve">
<style type="text/css">
	.st0{fill:#F7F5F5;}
</style>
<path class="st0" d="M57.7,60.5H2.3c-1.3,0-2.3-1-2.3-2.3V2.8c0-1.3,1-2.3,2.3-2.3h55.5c1.3,0,2.3,1,2.3,2.3v55.5
	C60,59.5,59,60.5,57.7,60.5z"/>
<rect x="0" y="0.5" class="st0" width="60" height="60"/>
<path d="M52.5,12.2H40L31,34.7L20.9,12.2H7.5v1.1l4.7,5.8l-0.1,22.3l-4.7,6.4l0,1.1h13.2l0-1l-5.5-6.5l0.1-18L27,48.8h1.4l10.3-26.1
	V44l-4.2,4v0.9h18v-1l-4.1-3.9l-0.1-26.9l4.2-3.6L52.5,12.2L52.5,12.2z"/>
</svg>
